<?xml version="1.0" encoding="utf-8"?>
<!-- Generator: Adobe Illustrator 27.1.1, SVG Export Plug-In . SVG Version: 6.00 Build 0)  -->
<svg version="1.1" xmlns="http://www.w3.org/2000/svg" xmlns:xlink="http://www.w3.org/1999/xlink" x="0px" y="0px"
	 viewBox="0 0 3093.02 832.97" style="enable-background:new 0 0 3093.02 832.97;" xml:space="preserve">
<style type="text/css">
	.st0{fill:url(#SVGID_1_);}
	.st1{fill:url(#SVGID_00000080928313093837588570000010489558244883545778_);}
	.st2{fill:#F26122;}
	.st3{fill:#CC0657;}
	.st4{fill:#153A89;}
	.st5{fill:#0069B5;}
	.st6{fill:#00ACD8;}
	.st7{fill:#2C2D8C;}
	.st8{fill:#009CDC;}
	.st9{fill:#AB2147;}
	.st10{fill:#FDB913;}
	.st11{fill:url(#SVGID_00000043435606443698109260000012001183772239666097_);}
	.st12{fill:url(#SVGID_00000015322968223921858870000008934635343369963440_);}
	.st13{fill:#FFFFFF;}
	.st14{fill:url(#SVGID_00000177453751217834138650000011775334296200625538_);}
	.st15{fill:url(#SVGID_00000001649672449177058200000003211432833686983841_);}
	.st16{fill:url(#SVGID_00000105424311342007282700000017726138030916003262_);}
	.st17{fill:url(#SVGID_00000121254166366584502150000017840843678902698902_);}
</style>
<g id="bg">
</g>
<g id="guide">
</g>
<g id="design">
	<g>
		<g>
			<linearGradient id="SVGID_1_" gradientUnits="userSpaceOnUse" x1="775.3126" y1="605.8969" x2="264.8907" y2="227.3818">
				<stop  offset="0" style="stop-color:#25237A"/>
				<stop  offset="0.7341" style="stop-color:#009BC5"/>
				<stop  offset="1" style="stop-color:#009BC5"/>
			</linearGradient>
			<path class="st0" d="M373.44,100.21v124.02h21.55v163.15h-41.44v77.57h-68.23v148.32h198.63c84.53,0,153.19-24.55,205.96-73.66
				c16.93-15.75,31.1-32.73,42.59-50.92c-14.56-77.17-49.89-142.85-119.96-196.37c9.01,18.32,13.6,39.75,13.6,64.42
				c0,41.05-12.46,73.29-37.38,96.75c-24.92,23.46-60.1,35.18-105.54,35.18h-62.3V224.81h62.3c35.39,0,64.48,7.21,87.42,21.44
				c1.94,1.01,4.05,2.18,6.44,3.64c98.95,60.49,143.12,139.18,157.84,234.8c22.71-37.56,34.15-80.19,34.15-127.96
				c0-72.8-26.39-133.76-79.16-182.87c-52.77-49.11-121.43-73.66-205.96-73.66H373.44z"/>
			
				<linearGradient id="SVGID_00000107588964869678080020000007096490705378465669_" gradientUnits="userSpaceOnUse" x1="659.0038" y1="263.0976" x2="256.1146" y2="638.7451">
				<stop  offset="0" style="stop-color:#00AEEF"/>
				<stop  offset="1" style="stop-color:#0066A3"/>
			</linearGradient>
			<path style="fill:url(#SVGID_00000107588964869678080020000007096490705378465669_);" d="M373.44,224.23h8.11
				c-2.66-0.05-5.36-0.12-8.11-0.2V224.23z M394.99,224.41v162.97h-41.44v77.57h-68.23v148.32h198.63
				c84.53,0,153.19-24.55,205.96-73.66c16.93-15.75,31.1-32.73,42.59-50.92c-14.56-77.17-49.89-142.85-119.96-196.37
				c9.01,18.32,13.6,39.75,13.6,64.42c0,41.05-12.46,73.29-37.38,96.75c-24.92,23.46-60.1,35.18-105.54,35.18h-62.3V224.81"/>
			<rect x="58.49" y="152.81" class="st2" width="38.9" height="41.35"/>
			<rect x="129.01" y="184.91" class="st3" width="61.01" height="64.72"/>
			<rect x="137.47" y="278" class="st3" width="38.9" height="42.15"/>
			<rect x="208.5" y="113.45" class="st4" width="73.3" height="80.04"/>
			<rect x="208.5" y="259.05" class="st5" width="45.92" height="50.27"/>
			<rect x="229.19" y="329.91" class="st5" width="45.92" height="50.27"/>
			<rect x="290.73" y="398.4" class="st6" width="34.2" height="35.49"/>
			<rect x="297.83" y="293.53" class="st6" width="66.6" height="66.14"/>
			<polygon class="st6" points="345.62,255.14 345.62,180.99 300.46,180.99 300.46,208.59 266.8,208.59 266.8,255.14 			"/>
			<rect x="77.71" y="236.62" class="st2" width="19.69" height="21.04"/>
			<rect x="-2.12" y="163.48" class="st10" width="28.99" height="30.87"/>
		</g>
		<path class="st8" d="M1359.99,610.6V347.91h14.59l138.64,262.69h156.89V99.81h-134.99v262.7h-14.59l-138.64-262.7H1225V610.6
			H1359.99z M1035.28,610.6V453.72L1217.7,99.81h-149.59l-94.86,189.72h-14.59L863.8,99.81H714.21l186.07,353.91V610.6H1035.28z"/>
		<g>
			<defs>
				<path id="SVGID_00000004507482802677617670000002138173445745373622_" d="M1947.39,253.05h14.59l47.43,153.24h-109.45
					L1947.39,253.05z M1859.83,99.82L1688.35,610.6h145.94l29.19-87.56h182.43l29.19,87.56h145.94L2049.55,99.82H1859.83z
					 M2735.47,99.82V610.6h357.55V486.55h-222.56v-72.97h207.97V296.83h-207.97v-72.97h222.56V99.82H2735.47z M2454.54,92.52
					c-70.05,0-128.92,24.81-176.59,74.42c-47.68,49.62-71.51,112.38-71.51,188.27s23.83,138.64,71.51,188.26
					c47.67,49.62,106.54,74.43,176.59,74.43c31.61,0,60.68-5.11,87.2-15.32c26.51-10.22,48.27-23.1,65.31-38.67
					c17.02-15.56,31.86-33.08,44.51-52.54c12.64-19.45,22-37.58,28.09-54.36c6.08-16.78,10.09-32.47,12.04-47.06h-134.99
					c-3.9,15.58-14.35,32.23-31.38,49.98c-17.04,17.76-40.62,26.63-70.78,26.63c-31.63,0-58.38-12.16-80.27-36.49
					c-21.9-24.32-32.84-55.94-32.84-94.86c0-38.91,10.94-70.53,32.84-94.86c21.89-24.32,48.64-36.49,80.27-36.49
					c49.62,0,83.66,24.33,102.16,72.97h134.99c-2.44-18.48-8.76-38.55-18.97-60.2c-10.22-21.64-24.45-43.65-42.69-66.03
					c-18.24-22.37-42.81-40.98-73.7-55.83C2525.43,99.94,2491.5,92.52,2454.54,92.52z"/>
			</defs>
			
				<linearGradient id="SVGID_00000122684557983122878080000014233999190171925422_" gradientUnits="userSpaceOnUse" x1="1788.5214" y1="613.7895" x2="3437.4431" y2="-6.0348">
				<stop  offset="0" style="stop-color:#25237A"/>
				<stop  offset="0.0795" style="stop-color:#25237A"/>
				<stop  offset="0.6386" style="stop-color:#009BC5"/>
				<stop  offset="1" style="stop-color:#009BC5"/>
			</linearGradient>
			
				<use xlink:href="#SVGID_00000004507482802677617670000002138173445745373622_"  style="overflow:visible;fill:url(#SVGID_00000122684557983122878080000014233999190171925422_);"/>
			<clipPath id="SVGID_00000021111102978554886550000000091455837294683546_">
				<use xlink:href="#SVGID_00000004507482802677617670000002138173445745373622_"  style="overflow:visible;"/>
			</clipPath>
		</g>
		<g>
			<path class="st9" d="M2216.81,821.27v-32.79h-55.55v-94.72h-33.7v127.5H2216.81z M1923.56,732.02h3.64l11.84,38.25h-27.32
				L1923.56,732.02z M1895.32,821.27l7.28-21.86h45.54l7.28,21.86h36.43l-42.8-127.5h-47.36l-42.81,127.5H1895.32z M1659.44,722.91
				h24.59c3.16,0,5.77,0.97,7.83,2.91c2.06,1.95,3.1,4.31,3.1,7.11s-1.03,5.16-3.1,7.1c-2.07,1.95-4.68,2.91-7.83,2.91h-24.59
				V722.91z M1659.44,772.09h26.41c3.16,0,5.77,0.97,7.83,2.91c2.06,1.94,3.1,4.31,3.1,7.1c0,2.8-1.03,5.16-3.1,7.1
				c-2.07,1.95-4.68,2.91-7.83,2.91h-26.41V772.09z M1692.23,821.27c11.78,0,21.1-3.28,27.96-9.83
				c6.86-6.56,10.29-15.12,10.29-25.68c0-7.53-2.61-14.63-7.83-21.31c-2.3-2.79-4.85-5.1-7.65-6.92v-0.91
				c2.79-2.06,5.04-4.31,6.74-6.74c4.61-6.07,6.92-12.93,6.92-20.58c0-10.57-3.43-19.12-10.29-25.68
				c-6.86-6.56-16.18-9.83-27.96-9.83h-64.66v127.5H1692.23z M1482.76,757.52c0-18.94-5.95-34.61-17.85-47
				c-11.9-12.39-26.6-18.58-44.08-18.58c-17.48,0-32.18,6.19-44.08,18.58c-11.9,12.39-17.85,28.05-17.85,47s5.95,34.61,17.85,47
				c11.9,12.39,26.6,18.58,44.08,18.58c17.49,0,32.18-6.19,44.08-18.58C1476.81,792.12,1482.76,776.46,1482.76,757.52
				 M1392.6,757.52c0-9.71,2.73-17.61,8.2-23.68c5.46-6.07,12.14-9.1,20.03-9.1c7.89,0,14.57,3.03,20.04,9.1
				c5.46,6.07,8.2,13.97,8.2,23.68c0,9.72-2.73,17.61-8.2,23.68c-5.46,6.07-12.14,9.11-20.04,9.11c-7.89,0-14.57-3.03-20.03-9.11
				C1395.33,775.13,1392.6,767.24,1392.6,757.52 M1232.31,821.27v-32.79h-55.55v-94.72h-33.7v127.5H1232.31z M998.25,821.27v-68.3
				h-58.29v22.76h23.68c-0.48,1.46-1.46,3.16-2.91,5.1c-1.46,1.95-4.22,4.01-8.29,6.19c-4.07,2.18-8.83,3.28-14.3,3.28
				c-7.9,0-14.57-3.03-20.04-9.11c-5.46-6.07-8.2-13.96-8.2-23.68c0-9.59,2.73-17.46,8.2-23.59c5.46-6.13,12.14-9.2,20.04-9.2
				c4.01,0,7.65,0.64,10.93,1.91c3.28,1.28,5.83,2.89,7.65,4.83c1.82,1.94,3.16,3.49,4.01,4.64c0.85,1.15,1.52,2.22,2.01,3.19h34.61
				c-0.61-3.16-1.7-6.58-3.28-10.29c-1.58-3.7-4.01-7.8-7.28-12.29c-3.28-4.49-7.02-8.53-11.21-12.11
				c-4.19-3.58-9.56-6.59-16.12-9.02c-6.56-2.43-13.66-3.64-21.31-3.64c-17.49,0-32.18,6.19-44.08,18.58
				c-11.9,12.39-17.85,28.05-17.85,47s5.95,34.61,17.85,47c11.9,12.39,26.6,18.58,44.08,18.58c7.53,0,14.14-1.4,19.85-4.19
				c5.71-2.79,10.02-5.65,12.93-8.56h0.91l1.28,10.93H998.25z"/>
		</g>
	</g>
</g>
</svg>
