<?xml version="1.0" encoding="utf-8"?>
<!-- Generator: Adobe Illustrator 27.1.1, SVG Export Plug-In . SVG Version: 6.00 Build 0)  -->
<svg version="1.1" xmlns="http://www.w3.org/2000/svg" xmlns:xlink="http://www.w3.org/1999/xlink" x="0px" y="0px"
	 viewBox="0 0 1625.56 1524.29" style="enable-background:new 0 0 1625.56 1524.29;" xml:space="preserve">
<style type="text/css">
	.st0{fill:url(#SVGID_1_);}
	.st1{fill:url(#SVGID_00000160192663200856268680000010389554926298841478_);}
	.st2{fill:#F26122;}
	.st3{fill:#CC0657;}
	.st4{fill:#153A89;}
	.st5{fill:#0069B5;}
	.st6{fill:#00ACD8;}
	.st7{fill:#2C2D8C;}
	.st8{fill:#009CDC;}
	.st9{fill:#AB2147;}
	.st10{fill:#FDB913;}
	.st11{fill:url(#SVGID_00000103960834121067286960000017728883217089923769_);}
	.st12{fill:url(#SVGID_00000040558189929501503160000005523714369857241728_);}
	.st13{fill:#FFFFFF;}
	.st14{fill:url(#SVGID_00000003792847835128347250000007049336399818124189_);}
	.st15{fill:url(#SVGID_00000031923140220572740120000013516765222157556864_);}
	.st16{fill:url(#SVGID_00000137117869778187822080000009575201890390850699_);}
	.st17{fill:url(#SVGID_00000034811118771473243070000003539855751595028893_);}
</style>
<g id="bg">
</g>
<g id="guide">
</g>
<g id="design">
	<g>
		<linearGradient id="SVGID_1_" gradientUnits="userSpaceOnUse" x1="1638.7339" y1="1065.9282" x2="562.8209" y2="268.0601">
			<stop  offset="0" style="stop-color:#25237A"/>
			<stop  offset="0.7341" style="stop-color:#009BC5"/>
			<stop  offset="1" style="stop-color:#009BC5"/>
		</linearGradient>
		<path class="st0" d="M791.62,0v261.41h45.42v343.9H749.7v163.51H605.88v312.65h418.69c178.18,0,322.9-51.76,434.14-155.27
			c35.68-33.2,65.55-68.99,89.78-107.33c-30.69-162.66-105.16-301.12-252.87-413.94c18.99,38.62,28.67,83.79,28.67,135.8
			c0,86.52-26.26,154.5-78.8,203.93c-52.53,49.44-126.68,74.16-222.47,74.16H891.7V262.64h131.33c74.61,0,135.91,15.2,184.28,45.2
			c4.1,2.13,8.53,4.6,13.58,7.68c208.58,127.5,301.68,293.37,332.71,494.93c47.87-79.18,71.98-169.03,71.98-269.72
			c0-153.46-55.62-281.96-166.86-385.47C1347.47,51.75,1202.75,0,1024.57,0H791.62z"/>
		
			<linearGradient id="SVGID_00000083050909841782902600000012315707674814662309_" gradientUnits="userSpaceOnUse" x1="1393.5677" y1="343.3452" x2="544.3218" y2="1135.1688">
			<stop  offset="0" style="stop-color:#00AEEF"/>
			<stop  offset="1" style="stop-color:#0066A3"/>
		</linearGradient>
		<path style="fill:url(#SVGID_00000083050909841782902600000012315707674814662309_);" d="M791.62,261.41h17.09
			c-5.62-0.11-11.31-0.25-17.09-0.42V261.41z M837.05,261.79v343.52H749.7v163.51H605.88v312.65h418.69
			c178.18,0,322.9-51.76,434.14-155.27c35.68-33.2,65.55-68.99,89.78-107.33c-30.69-162.66-105.16-301.12-252.87-413.94
			c18.99,38.62,28.67,83.79,28.67,135.8c0,86.52-26.26,154.5-78.8,203.93c-52.53,49.44-126.68,74.16-222.47,74.16H891.7V262.64"/>
		<rect x="127.75" y="110.87" class="st2" width="82" height="87.16"/>
		<rect x="276.4" y="178.54" class="st3" width="128.6" height="136.42"/>
		<rect x="294.24" y="374.75" class="st3" width="82" height="88.86"/>
		<rect x="276.4" y="61.47" class="st3" width="61.11" height="73.93"/>
		<rect x="443.96" y="27.9" class="st4" width="154.51" height="168.72"/>
		<rect x="443.96" y="334.81" class="st5" width="96.79" height="105.96"/>
		<rect x="487.56" y="484.18" class="st5" width="96.79" height="105.96"/>
		<rect x="617.29" y="628.55" class="st6" width="72.09" height="74.8"/>
		<rect x="657.47" y="27.81" class="st6" width="72.09" height="74.8"/>
		<rect x="632.24" y="407.5" class="st6" width="140.39" height="139.42"/>
		<polygon class="st6" points="732.99,326.56 732.99,170.28 637.8,170.28 637.8,228.46 566.84,228.46 566.84,326.56 		"/>
		<rect x="168.26" y="287.54" class="st2" width="41.5" height="44.35"/>
		<g>
			<path class="st7" d="M1612.7,1398.89v-44.68h-80.17v-26.28h74.91v-42.06h-74.91v-26.28h80.17v-44.68h-128.8v184H1612.7z
				 M1408.2,1344.61c-6.13,6.4-14.63,9.6-25.5,9.6c-11.39,0-21.03-4.38-28.91-13.14c-7.88-8.76-11.83-20.15-11.83-34.17
				c0-14.02,3.94-25.41,11.83-34.17c7.88-8.76,17.52-13.14,28.91-13.14c17.87,0,30.14,8.76,36.8,26.28h48.63
				c-0.88-6.66-3.16-13.88-6.83-21.68c-3.68-7.8-8.81-15.72-15.38-23.79c-6.57-8.06-15.42-14.76-26.55-20.11
				c-11.13-5.34-23.36-8.02-36.67-8.02c-25.23,0-46.44,8.94-63.61,26.81c-17.18,17.87-25.76,40.48-25.76,67.82
				c0,27.34,8.58,49.94,25.76,67.82c17.17,17.87,38.38,26.81,63.61,26.81c11.39,0,21.86-1.84,31.41-5.52
				c9.55-3.68,17.39-8.32,23.53-13.93c6.13-5.61,11.48-11.91,16.03-18.93c4.56-7.01,7.93-13.54,10.12-19.59
				c2.19-6.04,3.63-11.7,4.34-16.95h-48.63C1418.1,1332.22,1414.33,1338.22,1408.2,1344.61 M1200.03,1270.1h5.25l17.08,55.2h-39.43
				L1200.03,1270.1z M1159.28,1398.89l10.51-31.54h65.71l10.51,31.54h52.57l-61.77-184h-68.34l-61.77,184H1159.28z"/>
			<path class="st8" d="M988.43,1398.89v-94.63h5.25l49.94,94.63h56.51v-184h-48.63v94.63h-5.25l-49.94-94.63H939.8v184H988.43z
				 M871.46,1398.89v-56.51l65.71-127.48h-53.88l-34.17,68.34h-5.25l-34.17-68.34H755.8l67.03,127.48v56.51H871.46z M653.29,1262.21
				h22.34c11.21,0,20.81,4.2,28.78,12.61c7.97,8.41,11.96,19.1,11.96,32.07c0,12.97-3.99,23.65-11.96,32.07
				c-7.97,8.41-17.57,12.62-28.78,12.62h-22.34V1262.21z M674.32,1398.89c25.76,0,47.31-8.76,64.66-26.28
				c17.35-17.52,26.02-39.43,26.02-65.71s-8.67-48.19-26.02-65.71c-17.35-17.52-38.9-26.28-64.66-26.28h-69.66v184H674.32z"/>
			<path class="st9" d="M1468.03,1523.38v-16.36h-27.73v-47.27h-16.82v63.64H1468.03z M1321.65,1478.83h1.82l5.91,19.09h-13.64
				L1321.65,1478.83z M1307.56,1523.38l3.64-10.91h22.73l3.64,10.91h18.18l-21.37-63.64h-23.63l-21.37,63.64H1307.56z
				 M1189.83,1474.28h12.28c1.57,0,2.88,0.49,3.91,1.45c1.03,0.97,1.54,2.15,1.54,3.55c0,1.39-0.52,2.58-1.54,3.54
				c-1.03,0.97-2.34,1.46-3.91,1.46h-12.28V1474.28z M1189.83,1498.83h13.18c1.57,0,2.88,0.49,3.91,1.45
				c1.03,0.97,1.54,2.15,1.54,3.55c0,1.39-0.52,2.58-1.54,3.54c-1.03,0.97-2.34,1.45-3.91,1.45h-13.18V1498.83z M1206.19,1523.38
				c5.88,0,10.53-1.64,13.96-4.91c3.42-3.28,5.14-7.55,5.14-12.82c0-3.76-1.31-7.3-3.91-10.63c-1.15-1.39-2.43-2.55-3.82-3.46v-0.45
				c1.39-1.03,2.52-2.15,3.36-3.36c2.3-3.03,3.46-6.46,3.46-10.28c0-5.27-1.72-9.54-5.14-12.82c-3.42-3.28-8.07-4.91-13.95-4.91
				h-32.27v63.64H1206.19z M1101.64,1491.56c0-9.45-2.97-17.27-8.91-23.46c-5.94-6.18-13.27-9.27-22-9.27s-16.06,3.09-22,9.27
				c-5.94,6.18-8.91,14-8.91,23.46c0,9.46,2.97,17.27,8.91,23.46s13.27,9.27,22,9.27s16.06-3.09,22-9.27
				S1101.64,1501.01,1101.64,1491.56 M1056.63,1491.56c0-4.85,1.36-8.79,4.09-11.82c2.73-3.03,6.06-4.55,10-4.55s7.27,1.52,10,4.55
				c2.72,3.03,4.09,6.97,4.09,11.82c0,4.85-1.36,8.79-4.09,11.82c-2.73,3.03-6.06,4.55-10,4.55s-7.27-1.51-10-4.55
				C1058,1500.35,1056.63,1496.41,1056.63,1491.56 M976.63,1523.38v-16.36H948.9v-47.27h-16.82v63.64H976.63z M859.8,1523.38v-34.09
				h-29.09v11.36h11.82c-0.24,0.73-0.73,1.58-1.45,2.55c-0.73,0.97-2.11,2-4.14,3.09c-2.03,1.09-4.41,1.64-7.14,1.64
				c-3.94,0-7.27-1.51-10-4.55c-2.72-3.03-4.09-6.97-4.09-11.82c0-4.79,1.36-8.71,4.09-11.77c2.73-3.06,6.06-4.59,10-4.59
				c2,0,3.82,0.32,5.45,0.96c1.64,0.64,2.91,1.44,3.82,2.41c0.91,0.97,1.57,1.74,2,2.32c0.42,0.58,0.75,1.11,1,1.59h17.27
				c-0.3-1.57-0.85-3.28-1.63-5.14c-0.79-1.85-2-3.9-3.64-6.14s-3.5-4.26-5.59-6.04c-2.09-1.79-4.77-3.29-8.05-4.5
				c-3.27-1.21-6.82-1.82-10.63-1.82c-8.73,0-16.06,3.09-22,9.27c-5.94,6.18-8.91,14-8.91,23.46c0,9.46,2.97,17.27,8.91,23.46
				c5.94,6.18,13.27,9.27,22,9.27c3.76,0,7.06-0.69,9.91-2.09c2.85-1.39,5-2.82,6.46-4.27h0.45l0.64,5.45H859.8z"/>
		</g>
		<rect y="133.36" class="st10" width="61.11" height="65.07"/>
	</g>
</g>
</svg>
